<svg xmlns="http://www.w3.org/2000/svg" xml:space="preserve" style="fill-rule:evenodd;clip-rule:evenodd;stroke-linejoin:round;stroke-miterlimit:2" viewBox="0 0 100 100"><path d="M50 0c27.6 0 50 22.4 50 50s-22.4 50-50 50S0 77.6 0 50 22.4 0 50 0Zm24.069 28.6H25.931c-4.025 0-7.301 3.222-7.301 7.181v28.438c0 3.959 3.276 7.181 7.301 7.181h48.138c4.025 0 7.301-3.222 7.301-7.181V35.791c.01-3.959-3.276-7.191-7.301-7.191Zm0 37.367H25.931c-.976 0-1.756-.778-1.756-1.727v-25.5l21.256 15.663a7.712 7.712 0 0 0 4.579 1.485 7.76 7.76 0 0 0 4.58-1.485L75.846 38.74v25.49a1.768 1.768 0 0 1-1.777 1.737ZM72.94 34.054 51.253 50.04a2.122 2.122 0 0 1-2.506 0L27.071 34.054H72.94Z" style="fill:#332d2a;fill-rule:nonzero"/></svg>