<?xml version="1.0" encoding="utf-8"?>
<!-- Generator: Adobe Illustrator 25.1.0, SVG Export Plug-In . SVG Version: 6.00 Build 0)  -->
<svg version="1.1" id="Layer_1" xmlns="http://www.w3.org/2000/svg" xmlns:xlink="http://www.w3.org/1999/xlink" x="0px" y="0px"
	 viewBox="0 0 100 100" style="enable-background:new 0 0 100 100;" xml:space="preserve">
<style type="text/css">
	.st0{fill:#332D2A;}
</style>
<g>
	<path class="st0" d="M50,0C22.4,0,0,22.4,0,50s22.4,50,50,50s50-22.4,50-50S77.6,0,50,0z M76.2,60.9c-0.1,2.8-0.5,4.7-1.2,6.4
		c-0.6,1.8-1.5,3.2-3,4.7c-1.5,1.4-3,2.3-4.7,3c-1.7,0.6-3.6,1.1-6.4,1.2c-2.8,0.2-3.7,0.2-10.9,0.2s-8.1-0.1-10.9-0.2
		c-2.8-0.1-4.7-0.5-6.4-1.2c-1.8-0.6-3.2-1.5-4.7-3c-1.4-1.5-2.3-3-3-4.7c-0.6-1.7-1.1-3.6-1.2-6.4c-0.2-2.8-0.2-3.7-0.2-10.9
		s0.1-8.1,0.2-10.9c0.1-2.8,0.5-4.7,1.2-6.4c0.6-1.8,1.5-3.2,3-4.7c1.5-1.4,3-2.3,4.7-3c1.7-0.6,3.6-1.1,6.4-1.2
		c2.8-0.2,3.7-0.2,10.9-0.2s8.1,0.1,10.9,0.2c2.8,0.1,4.7,0.5,6.4,1.2c1.8,0.6,3.2,1.5,4.7,3c1.4,1.5,2.3,3,3,4.7
		c0.6,1.7,1.1,3.6,1.2,6.4c0.1,2.8,0.2,3.7,0.2,10.9S76.3,58.1,76.2,60.9z"/>
	<path class="st0" d="M70.7,34.6c-0.5-1.2-1.1-2.1-2-3c-0.9-0.9-1.8-1.5-3-2c-0.9-0.4-2.3-0.8-4.9-0.9C58,28.5,50,28.4,50,28.4
		c-7.1,0-7.9,0-10.7,0.1c-2.6,0.1-4,0.5-4.9,0.9c-1.2,0.5-2.1,1.1-3,2c-1,0.9-1.5,1.8-2,3c-0.3,0.9-0.8,2.3-0.9,4.9
		c-0.1,2.8-0.1,3.7-0.1,10.7c0,7.1,0,7.9,0.1,10.7c0.1,2.6,0.5,4,0.9,4.9c0.5,1.2,1.1,2.1,2,3c0.9,0.9,1.7,1.5,3,2
		c0.9,0.3,2.3,0.8,4.9,0.9c2.8,0.2,3.6,0.2,10.7,0.2s7.9-0.1,10.7-0.2c2.6-0.1,4-0.5,4.9-0.9c1.2-0.5,2.1-1.1,3-2s1.5-1.8,2-3
		c0.3-0.9,0.8-2.3,0.9-4.9c0.1-2.8,0.2-3.4,0.2-10.5s0-7.9-0.1-10.7C71.5,36.9,71.1,35.5,70.7,34.6z M50,63.6
		c-7.5,0-13.6-6.1-13.6-13.6S42.5,36.4,50,36.4S63.6,42.5,63.6,50S57.5,63.6,50,63.6z M64.1,39.1c-1.8,0-3.2-1.4-3.2-3.2
		s1.4-3.2,3.2-3.2c1.7,0,3.2,1.4,3.2,3.2C67.3,37.7,65.9,39.1,64.1,39.1z"/>
	<path class="st0" d="M50,41.1c-4.9,0-8.9,3.9-8.9,8.8s3.9,8.9,8.8,8.9s8.9-3.9,8.9-8.8S54.9,41.1,50,41.1z"/>
</g>
</svg>
