<svg version="1.1" xmlns="http://www.w3.org/2000/svg" xmlns:xlink="http://www.w3.org/1999/xlink" x="0px" y="0px" viewBox="0 0 1000 1000" xml:space="preserve">
		<path d="M500,59c59.6,0,117.3,11.7,171.6,34.6c52.5,22.2,99.7,54,140.2,94.5c40.5,40.5,72.3,87.7,94.5,140.2 c23,54.3,34.6,112.1,34.6,171.6s-11.7,117.3-34.6,171.6c-22.2,52.5-54,99.7-94.5,140.2c-40.5,40.5-87.7,72.3-140.2,94.5 C617.3,929.3,559.6,941,500,941s-117.3-11.7-171.6-34.6c-52.5-22.2-99.7-54-140.2-94.5c-40.5-40.5-72.3-87.7-94.5-140.2 C70.7,617.3,59,559.6,59,500s11.7-117.3,34.6-171.6c22.2-52.5,54-99.7,94.5-140.2c40.5-40.5,87.7-72.3,140.2-94.5 C382.7,70.7,440.4,59,500,59 M500,5C226.6,5,5,226.6,5,500s221.6,495,495,495s495-221.6,495-495S773.4,5,500,5L500,5z"/>
		<path d="M731.4,288H262.6c-39.2,0-71.1,31.9-71.1,71.1v281.6c0,39.2,31.9,71.1,71.1,71.1h468.8c39.2,0,71.1-31.9,71.1-71.1V359.2 C802.6,320,770.6,288,731.4,288z M720.4,342L509.2,500.3c-7.2,5.4-17.2,5.4-24.4,0L273.7,342H720.4z M731.4,658H262.6 c-9.5,0-17.1-7.7-17.1-17.1V388.4l207,155.1c13.1,9.8,28.8,14.7,44.6,14.7c15.7,0,31.4-4.9,44.6-14.7l207-155.1v252.4 C748.6,650.3,740.9,658,731.4,658z"/>
</svg>