<svg clip-rule="evenodd" fill-rule="evenodd" stroke-linejoin="round" stroke-miterlimit="2" viewBox="0 0 2700 900" xmlns="http://www.w3.org/2000/svg"><g transform="scale(4.16667)"><path d="m639.36 0h-630.72c-4.772 0-8.64 3.869-8.64 8.64v198.72c0 4.771 3.868 8.64 8.64 8.64h630.72c4.772 0 8.64-3.869 8.64-8.64v-198.72c0-4.771-3.868-8.64-8.64-8.64z" fill="#fff" fill-rule="nonzero"/><path d="m500.4 152.28h-20.64v-86.159h20.64zm88.224-67.679h-31.104v67.679h-20.4v-67.679h-26.4v-18.48h68.307c-13.402-18.751-35.347-30.974-60.147-30.974-40.811 0-73.894 33.095-73.894 73.92s33.083 73.92 73.894 73.92c40.81 0 73.893-33.095 73.893-73.92 0-8.576-1.464-16.808-4.149-24.466z" fill="#f6892b" fill-rule="nonzero"/><path d="m403.925 131.009c-2.208 2.458-4.942 3.686-8.199 3.686-3.431 0-6.197-1.186-8.297-3.558-2.101-2.37-3.151-6.015-3.151-10.93 0-5.599.996-9.604 2.991-12.019 1.993-2.415 4.662-3.623 8.006-3.623s6.174 1.314 8.49 3.943c2.314 2.628 3.472 6.421 3.472 11.379s-1.104 8.665-3.312 11.122zm29.487 20.482v-64.298h-24.503v10.064c-3.001-4.144-6.228-7.115-9.679-8.91-3.452-1.795-7.835-2.693-13.151-2.693-8.319 0-15.05 2.779-20.194 8.334-5.146 5.556-7.718 13.633-7.718 24.232 0 9.274 1.994 16.731 5.981 22.373 5.617 7.949 12.992 11.924 22.123 11.924 4.673 0 9.025-1.068 13.056-3.205 2.572-1.368 5.145-3.569 7.717-6.604v10.321c0 5-.933 8.504-2.797 10.514-1.865 2.008-4.684 3.013-8.457 3.013-2.917 0-5.338-.663-7.268-1.988-1.329-.897-2.315-2.522-2.958-4.872l-25.403-2.884c-.087 1.452-.129 2.606-.129 3.461 0 6.88 2.562 12.373 7.686 16.476 5.123 4.103 14.544 6.154 28.264 6.154 6.002 0 11.33-.535 15.982-1.603 4.651-1.069 8.489-2.799 11.512-5.193 3.022-2.393 5.444-5.524 7.267-9.391 1.821-3.868 2.734-7.94 2.734-12.212zm-110.809-65.837c-5.36 0-9.904.973-13.634 2.917-3.73 1.945-7.418 5.182-11.062 9.712v-11.09h-24.374v68.08h26.175v-32.694c0-6.196.986-10.491 2.958-12.886 1.972-2.393 4.544-3.589 7.718-3.589 2.871 0 5.101.887 6.688 2.66 1.586 1.774 2.38 4.799 2.38 9.071v37.438h26.303v-43.272c0-8.975-2.048-15.609-6.142-19.904s-9.765-6.443-17.01-6.443zm-91.966 69.619h26.175v-68.08h-26.175zm0-76.222h26.175v-17.757h-26.175zm-48.652 51.285-13.25-43.143h-27.234l28.403 68.08h23.216l29.028-68.08h-26.414zm-75.663-51.285h26.176v-17.757h-26.176zm0 76.222h26.176v-68.08h-26.176zm-43.925 0h26.239v-93.979h-26.239z" fill="#18161b"/></g></svg>