<svg viewBox="0 0 2271 675" xmlns="http://www.w3.org/2000/svg" xml:space="preserve" style="fill-rule:evenodd;clip-rule:evenodd;stroke-linejoin:round;stroke-miterlimit:2"><path d="M544.181 81.4c0 44.514-36.086 80.6-80.6 80.6-44.514 0-80.6-36.086-80.6-80.6 0-44.514 36.086-80.6 80.6-80.6 44.514 0 80.6 36.086 80.6 80.6Z" style="fill:#fff;fill-rule:nonzero" transform="scale(4.16667)"/><path d="M443.424 128.518h-22.513V34.573h22.513v93.945Zm96.231-73.795h-33.927v73.795h-22.252V54.723h-28.795v-20.15h74.506C514.568 14.128 490.632.801 463.581.801c-44.514 0-80.6 36.085-80.6 80.599s36.086 80.6 80.6 80.6c44.514 0 80.6-36.086 80.6-80.6 0-9.35-1.598-18.327-4.526-26.677Z" style="fill:#f6892b;fill-rule:nonzero" transform="scale(4.16667)"/><path d="M1423.034 434.417c-9.204 10.242-20.591 15.358-34.166 15.358-14.296 0-25.817-4.941-34.567-14.825-8.758-9.883-13.133-25.058-13.133-45.537 0-23.33 4.154-40.021 12.462-50.084 8.309-10.058 19.43-15.091 33.363-15.091s25.725 5.475 35.37 16.425c9.646 10.954 14.471 26.758 14.471 47.412 0 20.659-4.604 36.105-13.8 46.342Zm122.863 85.342V251.85h-102.096v41.938c-12.508-17.271-25.95-29.65-40.329-37.13-14.383-7.479-32.65-11.22-54.8-11.22-34.658 0-62.704 11.579-84.142 34.725-21.437 23.15-32.154 56.808-32.154 100.966 0 38.646 8.304 69.717 24.92 93.221 23.4 33.121 54.13 49.684 92.18 49.684 19.47 0 37.604-4.45 54.396-13.359 10.72-5.695 21.437-14.866 32.158-27.512v43.004c0 20.838-3.887 35.438-11.658 43.808-7.77 8.367-19.52 12.555-35.238 12.555-12.15 0-22.241-2.763-30.279-8.28-5.537-3.741-9.646-10.512-12.325-20.3l-105.85-12.02c-.358 6.05-.533 10.858-.533 14.42 0 28.671 10.67 51.555 32.02 68.65 21.347 17.096 60.605 25.642 117.772 25.642 25.008 0 47.204-2.229 66.591-6.679 19.38-4.45 35.371-11.662 47.963-21.633 12.596-9.975 22.687-23.017 30.283-39.134 7.588-16.116 11.388-33.079 11.388-50.883l-.267-12.554Zm-461.713-274.321c-22.329 0-41.262 4.054-56.804 12.154-15.542 8.104-30.908 21.596-46.088 40.467V251.85H879.734v283.667h109.058V399.292c0-25.817 4.109-43.713 12.33-53.688 8.212-9.97 18.933-14.958 32.154-14.958 11.967 0 21.258 3.7 27.87 11.088 6.605 7.391 9.909 19.991 9.909 37.795v155.988h109.604V355.221c0-37.396-8.533-65.042-25.591-82.937-17.063-17.896-40.688-26.846-70.884-26.846Zm-383.183-27.513h109.058v-73.987H701.001v73.987Zm0 317.592h109.058V251.85H701.001v283.667ZM498.284 431.613 443.07 251.85H329.596l118.35 283.667h96.734L665.626 251.85H555.567l-57.283 179.763ZM183.017 217.925h109.062v-73.987H183.017v73.987Zm0 317.592h109.062V251.85H183.017v283.667ZM0 535.517h109.33v-391.58H0v391.58Z"/></svg>
