<svg viewBox="0 0 2271 675" xmlns="http://www.w3.org/2000/svg" xml:space="preserve" style="fill-rule:evenodd;clip-rule:evenodd;stroke-linejoin:round;stroke-miterlimit:2"><path d="M544.181 81.4c0 44.514-36.086 80.6-80.6 80.6-44.514 0-80.6-36.086-80.6-80.6 0-44.514 36.086-80.6 80.6-80.6 44.514 0 80.6 36.086 80.6 80.6Z" style="fill:#fff;fill-rule:nonzero" transform="scale(4.16667)"/><path d="M443.424 128.518h-22.513V34.573h22.513v93.945Zm96.231-73.795h-33.927v73.795h-22.252V54.723h-28.795v-20.15h74.506C514.568 14.128 490.632.801 463.581.801c-44.514 0-80.6 36.085-80.6 80.599s36.086 80.6 80.6 80.6c44.514 0 80.6-36.086 80.6-80.6 0-9.35-1.598-18.327-4.526-26.677Z" style="fill:#f6892b;fill-rule:nonzero" transform="scale(4.16667)"/><path d="M341.528 104.26c-2.209 2.458-4.942 3.686-8.2 3.686-3.431 0-6.196-1.186-8.296-3.558-2.102-2.372-3.152-6.014-3.152-10.929 0-5.599.997-9.605 2.991-12.02 1.994-2.414 4.663-3.622 8.007-3.622 3.344 0 6.174 1.314 8.489 3.942 2.315 2.629 3.473 6.422 3.473 11.379 0 4.958-1.105 8.665-3.312 11.122Zm29.487 20.482V60.444h-24.503v10.065c-3.002-4.145-6.228-7.116-9.679-8.911-3.452-1.795-7.836-2.693-13.152-2.693-8.318 0-15.049 2.779-20.194 8.334-5.145 5.556-7.717 13.634-7.717 24.232 0 9.275 1.993 16.732 5.981 22.373 5.616 7.949 12.991 11.924 22.123 11.924 4.673 0 9.025-1.068 13.055-3.206 2.573-1.367 5.145-3.568 7.718-6.603v10.321c0 5.001-.933 8.505-2.798 10.514-1.865 2.008-4.685 3.013-8.457 3.013-2.916 0-5.338-.663-7.267-1.987-1.329-.898-2.315-2.523-2.958-4.872l-25.404-2.885a61.55 61.55 0 0 0-.128 3.461c0 6.881 2.561 12.373 7.685 16.476 5.123 4.103 14.545 6.154 28.265 6.154 6.002 0 11.329-.535 15.982-1.603 4.651-1.068 8.489-2.799 11.511-5.192 3.023-2.394 5.445-5.524 7.268-9.392a28.332 28.332 0 0 0 2.733-12.212l-.064-3.013ZM260.204 58.905c-5.359 0-9.903.973-13.633 2.917-3.73 1.945-7.418 5.183-11.061 9.712v-11.09h-24.374v68.08h26.174V95.83c0-6.196.986-10.491 2.959-12.885 1.971-2.393 4.544-3.59 7.717-3.59 2.872 0 5.102.888 6.689 2.661 1.585 1.774 2.378 4.798 2.378 9.071v37.437h26.305V85.253c0-8.975-2.048-15.61-6.142-19.905-4.095-4.295-9.765-6.443-17.012-6.443Zm-91.964-6.603h26.174V34.545H168.24v17.757Zm0 76.222h26.174v-68.08H168.24v68.08Zm-48.652-24.937-13.251-43.143H79.103l28.404 68.08h23.216l29.027-68.08h-26.414l-13.748 43.143ZM43.924 52.302h26.175V34.545H43.924v17.757Zm0 76.222h26.175v-68.08H43.924v68.08Zm-43.924 0h26.239V34.545H0v93.979Z" style="fill:#fff" transform="scale(4.16667)"/></svg>
