<?xml version="1.0" encoding="UTF-8" standalone="no"?>
<svg
   xmlns:dc="http://purl.org/dc/elements/1.1/"
   xmlns:cc="http://creativecommons.org/ns#"
   xmlns:rdf="http://www.w3.org/1999/02/22-rdf-syntax-ns#"
   xmlns:svg="http://www.w3.org/2000/svg"
   xmlns="http://www.w3.org/2000/svg"
   viewBox="0 0 1199.8492 1199.8492"
   height="1199.8492"
   width="1199.8492"
   xml:space="preserve"
   id="svg2"
   version="1.1"><metadata
     id="metadata8"><rdf:RDF><cc:Work
         rdf:about=""><dc:format>image/svg+xml</dc:format><dc:type
           rdf:resource="http://purl.org/dc/dcmitype/StillImage" /></cc:Work></rdf:RDF></metadata><defs
     id="defs6"><clipPath
       id="clipPath18"
       clipPathUnits="userSpaceOnUse"><path
         id="path16"
         d="M 0,899.887 H 899.887 V 0 H 0 Z" /></clipPath></defs><g
     transform="matrix(1.3333333,0,0,-1.3333333,0,1199.8493)"
     id="g10"><g
       id="g12"><g
         clip-path="url(#clipPath18)"
         id="g14"><g
           transform="translate(829.896,899.8872)"
           id="g20"><path
             id="path22"
             style="fill:#ffffff;fill-opacity:1;fill-rule:nonzero;stroke:none"
             d="m 0,0 h -759.905 c -38.655,0 -69.991,-31.336 -69.991,-69.991 v -759.905 c 0,-38.655 31.336,-69.991 69.991,-69.991 H 0 c 38.655,0 69.991,31.336 69.991,69.991 V -69.991 C 69.991,-31.336 38.655,0 0,0" /></g><path
           id="path24"
           style="fill:#f78d15;fill-opacity:1;fill-rule:nonzero;stroke:none"
           d="m 322.428,90.037 h -23.61 v 98.35 h 23.61 z m 100.92,77.255 H 387.767 V 90.037 h -23.336 v 77.255 h -30.198 v 21.095 h 78.137 c -15.331,21.404 -40.435,35.356 -68.804,35.356 -46.682,0 -84.526,-37.778 -84.526,-84.379 0,-46.601 37.844,-84.379 84.526,-84.379 46.684,0 84.528,37.778 84.528,84.379 0,9.788 -1.676,19.186 -4.746,27.928" /><g
           transform="translate(738.7104,332.2129)"
           id="g26"><path
             id="path28"
             style="fill:#160a06;fill-opacity:1;fill-rule:evenodd;stroke:none"
             d="M 0,0 H 63.555 V 27.028 H 0 V 48.09 H 68.513 V 76.384 H -40.928 V -56.136 H 70.496 v 30.011 l -70.496,0 z m -169.147,-13.243 c -2.044,-4.733 -4.87,-8.045 -8.475,-9.944 -3.607,-1.898 -9.677,-2.847 -18.21,-2.847 h -10.007 v 72.406 h 10.188 c 10.577,0 18.149,-2.591 22.716,-7.773 4.568,-5.184 6.852,-14.795 6.852,-28.836 0,-10.608 -1.022,-18.277 -3.064,-23.006 m 30.379,70.734 c -4.809,6.086 -10.894,10.757 -18.255,14.012 -7.363,3.253 -17.024,4.881 -28.983,4.881 h -60.67 v -132.52 h 60.67 c 7.272,0 15.385,1.205 24.341,3.616 6.55,1.748 12.68,5.257 18.39,10.531 5.709,5.273 10.171,11.811 13.387,19.616 3.214,7.804 4.823,18.787 4.823,32.949 0,9.04 -1.082,17.596 -3.247,25.672 -2.162,8.074 -5.649,15.156 -10.456,21.243 m -434.371,-78.553 c -3.997,-4.401 -9.903,-6.599 -17.715,-6.599 -8.054,0 -14.303,2.723 -18.75,8.171 -4.448,5.446 -6.671,15.514 -6.671,30.202 0,11.855 1.862,20.553 5.589,26.091 4.927,7.464 12.019,11.197 21.275,11.197 4.086,0 7.783,-0.845 11.088,-2.531 3.305,-1.688 6.1,-4.099 8.385,-7.233 1.381,-1.868 2.704,-4.821 3.966,-8.858 l 36.059,8.045 c -4.628,13.981 -11.705,24.347 -21.23,31.097 -9.525,6.748 -22.613,10.124 -39.259,10.124 -21.275,0 -37.727,-5.887 -49.357,-17.662 -11.629,-11.773 -17.444,-28.621 -17.444,-50.542 0,-16.442 3.305,-29.931 9.917,-40.471 6.61,-10.54 14.469,-17.902 23.574,-22.086 9.105,-4.186 20.838,-6.279 35.203,-6.279 11.839,0 21.59,1.717 29.253,5.153 7.663,3.434 14.077,8.527 19.247,15.277 5.168,6.748 8.954,15.155 11.358,25.22 l -35.788,10.847 c -1.804,-8.377 -4.704,-14.765 -8.7,-19.163 M 38.707,279.537 V 206.22 l -49.762,73.317 H -49.188 V 147.018 h 38.404 v 72.762 l 49.491,-72.762 h 38.494 v 132.519 z m -210.625,0 h -40.928 v -132.52 h 40.928 z m -221.985,-44.706 -26.626,44.706 h -45.362 l 51.475,-77.016 v -55.503 h 40.928 v 55.503 l 51.385,77.016 h -45.119 z m -226.158,-87.813 h 40.837 v 99.796 h 41.649 v 32.723 H -661.71 v -32.723 h 41.649 z m 582.763,219.049 c 4.236,-4.937 8.909,-8.746 14.018,-11.426 5.107,-2.681 11.464,-4.47 19.066,-5.375 7.603,-0.903 14.618,-1.355 21.05,-1.355 11.117,0 20.643,1.476 28.577,4.427 5.709,2.107 11.163,5.765 16.362,10.974 5.198,5.209 9.015,11.292 11.45,18.249 2.433,6.954 3.65,14.348 3.65,22.176 V 482.69 H 36.128 v -80.833 c 0,-7.346 -1.999,-13.021 -5.995,-17.025 -3.997,-4.004 -9.511,-6.006 -16.543,-6.006 -7.092,0 -12.636,2.032 -16.632,6.097 -3.997,4.062 -5.995,9.708 -5.995,16.934 v 80.833 h -40.747 v -78.953 c 0,-6.505 1.262,-13.971 3.786,-22.403 1.562,-5.239 4.462,-10.329 8.7,-15.267 m -168.889,34.635 14.435,47.638 14.588,-47.638 z m -7.336,81.988 -49.671,-132.519 h 41.695 l 6.442,21.875 h 46.364 l 6.611,-21.875 h 42.765 L -168.978,482.69 Z M -338.485,380.182 h -70.497 v 26.125 h 63.555 v 27.027 h -63.555 v 21.062 h 68.514 V 482.69 H -449.909 V 350.171 h 111.424 z m -272.651,-1.537 v 26.847 h 20.734 c 7.151,0 12.154,-1.19 15.009,-3.57 2.854,-2.381 4.282,-5.529 4.282,-9.446 0,-4.219 -1.442,-7.579 -4.327,-10.08 -2.885,-2.501 -7.843,-3.751 -14.874,-3.751 z m 0,77.197 h 18.029 c 6.189,0 10.532,-1.083 13.027,-3.253 2.493,-2.17 3.741,-5.184 3.741,-9.04 0,-4.157 -1.248,-7.337 -3.741,-9.537 -2.495,-2.2 -6.928,-3.299 -13.297,-3.299 h -17.759 z m 47.598,-103.863 c 6.911,0.904 12.08,2.35 15.505,4.339 5.529,3.193 9.886,7.532 13.072,13.017 3.185,5.482 4.778,11.66 4.778,18.531 0,8.436 -2.24,15.442 -6.716,21.017 -4.478,5.573 -11.464,9.505 -20.96,11.796 6.25,2.17 10.998,5.121 14.244,8.859 4.868,5.604 7.302,12.324 7.302,20.158 0,9.341 -3.412,17.175 -10.232,23.503 -6.822,6.327 -16.603,9.491 -29.343,9.491 h -76.446 V 350.171 h 70.496 c 3.004,0 9.105,0.601 18.3,1.808" /></g></g></g></g></svg>