<svg viewBox="0 0 2596.17 1290.17" xmlns="http://www.w3.org/2000/svg"><ellipse cx="355.68" cy="934.51" fill="#fff" rx="340.69" ry="340.67"/><path d="m355.68 578.86c-196.44 0-355.68 159.23-355.68 355.65s159.24 355.66 355.68 355.66 355.68-159.23 355.68-355.66-159.24-355.66-355.68-355.66zm-148.95 563.51h-99.32v-414.44h99.32zm398.21.48h-99.12l-149.33-231.44v230.95h-99.32v-414.44h99.32l149.15 231.39v-231.54h99.3v415.07z" fill="#ff8705"/><path d="m444.64 220.46c22.28-7.71 39.21-18.21 50.78-31.49 17.35-19.93 26.03-43.81 26.03-71.67 0-33.21-12.16-61.06-36.48-83.56-24.32-22.49-59.19-33.74-104.61-33.74h-272.52v471.13h251.31c10.71 0 32.46-2.14 65.24-6.43 24.64-3.21 43.06-8.36 55.28-15.43 19.71-11.35 35.24-26.78 46.6-46.28 11.35-19.49 17.03-41.46 17.03-65.88 0-29.99-7.98-54.9-23.94-74.72-15.96-19.81-40.87-33.79-74.72-41.94zm-189.93-125.01h64.27c22.06 0 37.55 3.86 46.44 11.57s13.34 18.43 13.34 32.14c0 14.78-4.45 26.09-13.34 33.9-8.89 7.82-24.7 11.73-47.4 11.73h-63.31zm127.26 261.12c-10.28 8.89-27.96 13.34-53.03 13.34h-74.24v-95.45h73.92c25.49 0 43.33 4.23 53.51 12.69 10.17 8.47 15.27 19.66 15.27 33.58 0 15-5.14 26.95-15.43 35.83zm600.33 26.19-128.87-11.89c-8.14 10.28-15.75 17.46-22.82 21.53-11.57 6.43-23.78 9.64-36.64 9.64-20.36 0-36.85-7.39-49.49-22.17-9-10.28-14.68-25.92-17.03-46.92h262.24v-14.78c0-44.99-7.39-81.52-22.17-109.59-14.78-28.06-36.32-49.49-64.6-64.27s-66.85-22.17-115.69-22.17c-60.21 0-107.39 16.5-141.56 49.49-34.18 33-51.26 76.17-51.26 129.51 0 37.5 8.52 70.11 25.55 97.86s38.51 48 64.44 60.74c25.92 12.74 61.49 19.12 106.7 19.12 52.06 0 92.02-7.45 119.87-22.34s51.63-39.47 71.34-73.76zm-239.42-158.44c12.42-16.5 29.03-24.75 49.81-24.75 18 0 32.51 5.46 43.55 16.39 11.03 10.93 17.84 29.03 20.41 54.31h-128.87c2.14-20.35 7.18-35.67 15.1-45.96zm670.55 211.95c-2.04-9.1-3.05-21.69-3.05-37.76v-150.73c0-16.07-3.21-32.94-9.64-50.62s-15.21-31.33-26.35-40.98c-15.86-13.92-35.67-23.08-59.45-27.48-23.78-4.39-55.28-6.59-94.48-6.59-24.42 0-47.14 1.82-68.13 5.46-21 3.65-37.5 8.79-49.49 15.43-16.71 9.21-29.52 20.09-38.4 32.62-8.89 12.53-15.7 29.73-20.41 51.58l125.01 13.18c5.14-14.78 11.89-24.85 20.25-30.21 10.71-6.85 26.78-10.28 48.21-10.28 16.71 0 28.39 3.21 35.03 9.64s9.96 17.68 9.96 33.74c-16.28 6.43-31.71 11.62-46.28 15.59s-46.39 10.88-95.45 20.73c-40.92 8.14-68.99 20.57-84.2 37.28-15.22 16.71-22.82 38.03-22.82 63.95 0 27.64 10.55 50.89 31.66 69.74 21.1 18.86 52.01 28.28 92.72 28.28 30.64 0 57.53-4.72 80.66-14.14 16.92-7.07 33.96-18.85 51.1-35.35 1.5 9.86 3 17.09 4.5 21.69 1.5 4.61 4.71 11.3 9.64 20.09h122.76c-6.86-14.14-11.3-25.76-13.34-34.87zm-130.96-106.21c0 16.28-2.63 29.52-7.87 39.69-5.25 10.18-14.14 18.8-26.67 25.87s-26.09 10.61-40.65 10.61-24.48-3.26-31.66-9.8c-7.18-6.53-10.77-14.94-10.77-25.23 0-9 3.64-17.03 10.93-24.1 7.07-6.85 23.89-13.82 50.46-20.89 19.49-4.93 38.24-10.61 56.24-17.03v20.89zm565.94 141.08v-341.31h-130.8v164.22c0 31.07-4.98 52.6-14.94 64.6s-22.77 18-38.4 18c-14.36 0-25.5-4.5-33.42-13.5-7.93-9-11.89-24.21-11.89-45.64v-187.68h-131.44v217.25c0 44.78 10.23 77.93 30.69 99.47 20.46 21.53 48.69 32.3 84.68 32.3 27 0 49.76-4.82 68.29-14.46s36.9-25.82 55.12-48.53v55.28h122.12zm263.85-84.84c-10.72 0-18.21-3.64-22.5-10.91-2.79-4.7-4.18-14.32-4.18-28.86v-120.92h71.99v-95.77h-71.99v-129.84l-131.12 67.17v62.67h-48.21v95.77h48.21v120.04c0 38.09 3.7 65.64 11.09 82.65s18.8 29.69 34.23 38.03c15.43 8.35 39.42 12.52 71.99 12.52 28.06 0 58.27-3.54 90.63-10.61l-9.64-90.29c-17.35 5.56-30.85 8.34-40.49 8.34zm189.04 122.75c-9.53 7.08-21.99 10.62-37.4 10.62-23.12 0-44.1-3-62.93-9l10.27 91.27c39.4 5.14 68.53 7.71 87.38 7.71 46.47 0 81.06-10.29 103.76-30.88 16.06-14.58 31.8-42.67 47.22-84.26l135.41-364.67h-128.89l-65.38 227.21-70.4-227.21h-138.01l143.22 341.24c-6.64 18.23-14.72 30.89-24.24 37.97zm-1182.62 537.97c-14.25 15.64-35.3 23.46-63.15 23.46s-50.99-9.68-66.85-29.05c-15.86-19.36-23.78-55.16-23.78-107.37 0-42.15 6.64-73.07 19.93-92.76 17.57-26.53 42.85-39.81 75.84-39.81 14.57 0 27.74 3 39.53 9 11.78 6 21.74 14.57 29.89 25.71 4.93 6.64 9.64 17.14 14.14 31.49l128.55-28.6c-16.5-49.7-41.73-86.55-75.68-110.55-33.96-23.99-80.61-35.99-139.96-35.99-75.84 0-134.49 20.93-175.95 62.79s-62.19 101.75-62.19 179.69c0 58.45 11.78 106.41 35.35 143.88s51.58 63.64 84.04 78.52 74.29 22.32 125.5 22.32c42.21 0 76.97-6.11 104.29-18.32s50.18-30.31 68.61-54.31c18.42-23.99 31.92-53.88 40.49-89.66l-127.59-38.56c-6.43 29.78-16.77 52.49-31.01 68.13zm399.63-224.32c-59.78 0-107.23 16.87-142.37 50.62-35.14 33.74-52.71 76.65-52.71 128.71 0 55.92 20.78 101.13 62.35 135.62 33.85 27.85 78.2 41.78 133.05 41.78 61.49 0 109.64-16.76 144.46-50.29 34.81-33.53 52.22-76.54 52.22-129.03 0-46.7-14.03-86.02-42.1-117.94-34.92-39.63-86.56-59.45-154.9-59.45zm47.4 246.81c-12.11 14.36-27.59 21.53-46.44 21.53s-34.12-7.28-46.44-21.85-18.48-37.06-18.48-67.49 6.21-52.33 18.64-67.01c12.42-14.67 28.17-22.01 47.24-22.01 18 0 33.1 7.23 45.31 21.69s18.32 36.48 18.32 66.04c0 31.71-6.06 54.74-18.16 69.1zm439.8-205.68c-12.85-13.71-27.59-23.99-44.19-30.85-16.61-6.85-35.09-10.28-55.44-10.28-41.78 0-76.22 15-103.32 44.99-27.11 30-40.65 73.27-40.65 129.83 0 50.57 12.26 93.52 36.8 128.87 24.53 35.35 60.04 53.03 106.54 53.03 23.14 0 44.13-4.93 62.99-14.78 14.14-7.5 29.78-21.96 46.92-43.39v50.46h122.44v-471.13h-132.08v163.26zm-15.75 200.22c-11.14 13.07-25.07 19.6-41.78 19.6-15.64 0-28.76-6.48-39.37-19.44s-15.91-33.37-15.91-61.22c0-29.78 5.14-50.99 15.43-63.63 10.28-12.64 23.03-18.96 38.24-18.96 17.35 0 31.71 6.59 43.06 19.76 11.35 13.18 17.03 33.16 17.03 59.94 0 29.57-5.57 50.89-16.71 63.95zm606.43-45.31c0-44.99-7.39-81.52-22.17-109.59-14.78-28.06-36.32-49.49-64.6-64.27s-66.85-22.17-115.69-22.17c-60.21 0-107.39 16.5-141.56 49.49-34.18 33-51.26 76.17-51.26 129.51 0 37.5 8.52 70.11 25.55 97.86s38.51 48 64.44 60.74c25.92 12.74 61.49 19.12 106.7 19.12 52.06 0 92.02-7.45 119.87-22.34s51.63-39.47 71.34-73.76l-128.87-11.89c-8.14 10.28-15.75 17.46-22.82 21.53-11.57 6.43-23.78 9.64-36.64 9.64-20.36 0-36.85-7.39-49.49-22.17-9-10.28-14.68-25.92-17.03-46.92h262.24v-14.78zm-261.92-47.88c2.14-20.35 7.18-35.67 15.1-45.96 12.42-16.5 29.03-24.75 49.81-24.75 18 0 32.51 5.46 43.55 16.39 11.03 10.93 17.84 29.03 20.41 54.31h-128.87z" fill="#fff"/></svg>