<svg width="0" height="0" style="position:absolute"><symbol viewBox="0 0 24 24" id="arrow_up" xmlns="http://www.w3.org/2000/svg"><path d="M0 0h24v24H0V0z" fill="none"/><path d="m4 12 1.41 1.41L11 7.83V20h2V7.83l5.58 5.59L20 12l-8-8-8 8z"/></symbol><symbol viewBox="0 0 24 24" id="email" xmlns="http://www.w3.org/2000/svg"><path d="M5 3a2 2 0 0 0-2 2v14a2 2 0 0 0 2 2h14a2 2 0 0 0 2-2V5a2 2 0 0 0-2-2H5m1.4 3.5h11.2c.77 0 1.4.62 1.4 1.4v8.2a1.4 1.4 0 0 1-1.4 1.4H6.4c-.77 0-1.4-.63-1.4-1.4V7.9c0-.78.62-1.4 1.4-1.4M6 8v2l6 4 6-4V8l-6 4-6-4z"/></symbol><symbol viewBox="0 0 24 24" id="facebook" xmlns="http://www.w3.org/2000/svg"><path d="M5 3h14a2 2 0 0 1 2 2v14a2 2 0 0 1-2 2H5a2 2 0 0 1-2-2V5a2 2 0 0 1 2-2m13 2h-2.5A3.5 3.5 0 0 0 12 8.5V11h-2v3h2v7h3v-7h3v-3h-3V9a1 1 0 0 1 1-1h2V5z"/></symbol><symbol viewBox="0 0 100 100" style="enable-background:new 0 0 100 100" xml:space="preserve" id="facebook_new" xmlns="http://www.w3.org/2000/svg"><path d="M50 0C22.4 0 0 22.4 0 50s22.4 50 50 50 50-22.4 50-50S77.6 0 50 0zm13.7 30.2h-5c-3.9 0-4.7 1.9-4.7 4.7V41h9.4l-1.2 9.5H54v24.4h-9.8V50.4H36v-9.5h8.2v-7c0-8.1 5-12.6 12.2-12.6 3.5 0 6.5.2 7.3.4v8.5z" style="fill:#332d2a"/></symbol><symbol id="instagram_new" viewBox="0 0 100 100" style="enable-background:new 0 0 100 100" xml:space="preserve" xmlns="http://www.w3.org/2000/svg"><style>.est0{fill:#332d2a}</style><path class="est0" d="M50 0C22.4 0 0 22.4 0 50s22.4 50 50 50 50-22.4 50-50S77.6 0 50 0zm26.2 60.9c-.1 2.8-.5 4.7-1.2 6.4-.6 1.8-1.5 3.2-3 4.7-1.5 1.4-3 2.3-4.7 3-1.7.6-3.6 1.1-6.4 1.2-2.8.2-3.7.2-10.9.2s-8.1-.1-10.9-.2c-2.8-.1-4.7-.5-6.4-1.2-1.8-.6-3.2-1.5-4.7-3-1.4-1.5-2.3-3-3-4.7-.6-1.7-1.1-3.6-1.2-6.4-.2-2.8-.2-3.7-.2-10.9s.1-8.1.2-10.9c.1-2.8.5-4.7 1.2-6.4.6-1.8 1.5-3.2 3-4.7 1.5-1.4 3-2.3 4.7-3 1.7-.6 3.6-1.1 6.4-1.2 2.8-.2 3.7-.2 10.9-.2s8.1.1 10.9.2c2.8.1 4.7.5 6.4 1.2 1.8.6 3.2 1.5 4.7 3 1.4 1.5 2.3 3 3 4.7.6 1.7 1.1 3.6 1.2 6.4.1 2.8.2 3.7.2 10.9s-.1 8.1-.2 10.9z"/><path class="est0" d="M70.7 34.6c-.5-1.2-1.1-2.1-2-3-.9-.9-1.8-1.5-3-2-.9-.4-2.3-.8-4.9-.9-2.8-.2-10.8-.3-10.8-.3-7.1 0-7.9 0-10.7.1-2.6.1-4 .5-4.9.9-1.2.5-2.1 1.1-3 2-1 .9-1.5 1.8-2 3-.3.9-.8 2.3-.9 4.9-.1 2.8-.1 3.7-.1 10.7 0 7.1 0 7.9.1 10.7.1 2.6.5 4 .9 4.9.5 1.2 1.1 2.1 2 3 .9.9 1.7 1.5 3 2 .9.3 2.3.8 4.9.9 2.8.2 3.6.2 10.7.2s7.9-.1 10.7-.2c2.6-.1 4-.5 4.9-.9 1.2-.5 2.1-1.1 3-2s1.5-1.8 2-3c.3-.9.8-2.3.9-4.9.1-2.8.2-3.4.2-10.5s0-7.9-.1-10.7c-.1-2.6-.5-4-.9-4.9zM50 63.6c-7.5 0-13.6-6.1-13.6-13.6S42.5 36.4 50 36.4 63.6 42.5 63.6 50 57.5 63.6 50 63.6zm14.1-24.5c-1.8 0-3.2-1.4-3.2-3.2s1.4-3.2 3.2-3.2c1.7 0 3.2 1.4 3.2 3.2 0 1.8-1.4 3.2-3.2 3.2z"/><path class="est0" d="M50 41.1c-4.9 0-8.9 3.9-8.9 8.8s3.9 8.9 8.8 8.9 8.9-3.9 8.9-8.8-3.9-8.9-8.8-8.9z"/></symbol><symbol viewBox="0 0 24 24" id="linkedin" xmlns="http://www.w3.org/2000/svg"><path d="M19 3a2 2 0 0 1 2 2v14a2 2 0 0 1-2 2H5a2 2 0 0 1-2-2V5a2 2 0 0 1 2-2h14m-.5 15.5v-5.3a3.26 3.26 0 0 0-3.26-3.26c-.85 0-1.84.52-2.32 1.3v-1.11h-2.79v8.37h2.79v-4.93c0-.77.62-1.4 1.39-1.4a1.4 1.4 0 0 1 1.4 1.4v4.93h2.79M6.88 8.56a1.68 1.68 0 0 0 1.68-1.68c0-.93-.75-1.69-1.68-1.69a1.69 1.69 0 0 0-1.69 1.69c0 .93.76 1.68 1.69 1.68m1.39 9.94v-8.37H5.5v8.37h2.77z"/></symbol><symbol viewBox="0 0 100 100" style="enable-background:new 0 0 100 100" xml:space="preserve" id="linkedin_new" xmlns="http://www.w3.org/2000/svg"><path d="M50 0C22.4 0 0 22.4 0 50s22.4 50 50 50 50-22.4 50-50S77.6 0 50 0zm-9.3 72.2h-9.2V42.5h9.2v29.7zm-4.6-33.8c-3 0-5.4-2.4-5.4-5.4s2.4-5.4 5.4-5.4 5.4 2.4 5.4 5.4c-.1 3-2.5 5.4-5.4 5.4zm39.2 33.8h-9.2V57.8c0-3.5-.1-7.9-4.8-7.9-4.8 0-5.5 3.8-5.5 7.6v14.7h-9.2V42.5h8.9v4h.1c1.2-2.3 4.2-4.8 8.7-4.8 9.3 0 11.1 6.2 11.1 14.2-.1 0-.1 16.3-.1 16.3z" style="fill:#332d2a"/></symbol><symbol viewBox="0 0 544.18 161.2" id="living_it_new" xmlns="http://www.w3.org/2000/svg"><path d="M539.65 53.92h-33.93v73.8h-22.25v-73.8h-28.8V33.77h74.51C514.57 13.33 490.63 0 463.58 0c-44.51 0-80.6 36.09-80.6 80.6s36.09 80.6 80.6 80.6 80.6-36.09 80.6-80.6c0-9.35-1.6-18.33-4.53-26.68Zm-96.23 73.8h-22.51V33.77h22.51v93.95Z" style="fill:#ff8707"/><path d="M0 127.72h26.24V33.74H0v93.98Zm43.92 0h26.17V59.64H43.92v68.08Zm0-76.22h26.17V33.74H43.92V51.5Zm75.66 51.28-13.25-43.14H79.1l28.4 68.08h23.22l29.03-68.08h-26.41l-13.75 43.14Zm48.65-51.28h26.17V33.74h-26.17V51.5Zm0 76.22h26.17V59.64h-26.17v68.08ZM260.2 58.1c-5.36 0-9.9.97-13.63 2.92-3.73 1.95-7.42 5.18-11.06 9.71V59.64h-24.37v68.08h26.17V95.03c0-6.2.99-10.49 2.96-12.89 1.97-2.39 4.54-3.59 7.72-3.59 2.87 0 5.1.89 6.69 2.66 1.59 1.77 2.38 4.8 2.38 9.07v37.44h26.3V84.45c0-8.97-2.05-15.61-6.14-19.9-4.09-4.3-9.77-6.44-17.01-6.44Zm110.81 65.84v-64.3h-24.5V69.7c-3-4.14-6.23-7.12-9.68-8.91-3.45-1.79-7.84-2.69-13.15-2.69-8.32 0-15.05 2.78-20.19 8.33-5.14 5.56-7.72 13.63-7.72 24.23 0 9.27 1.99 16.73 5.98 22.37 5.62 7.95 12.99 11.92 22.12 11.92 4.67 0 9.02-1.07 13.06-3.21 2.57-1.37 5.14-3.57 7.72-6.6v10.32c0 5-.93 8.5-2.8 10.51-1.87 2.01-4.68 3.01-8.46 3.01-2.92 0-5.34-.66-7.27-1.99-1.33-.9-2.32-2.52-2.96-4.87l-25.4-2.88c-.09 1.45-.13 2.61-.13 3.46 0 6.88 2.56 12.37 7.69 16.48 5.12 4.1 14.54 6.15 28.27 6.15 6 0 11.33-.53 15.98-1.6s8.49-2.8 11.51-5.19c3.02-2.39 5.44-5.52 7.27-9.39 1.82-3.87 2.73-7.94 2.73-12.21l-.06-3.01Zm-29.49-20.48c-2.21 2.46-4.94 3.69-8.2 3.69-3.43 0-6.2-1.19-8.3-3.56-2.1-2.37-3.15-6.01-3.15-10.93 0-5.6 1-9.6 2.99-12.02 1.99-2.41 4.66-3.62 8.01-3.62s6.17 1.31 8.49 3.94 3.47 6.42 3.47 11.38-1.1 8.67-3.31 11.12Z" style="fill:#231f20;fill-rule:evenodd"/></symbol><symbol viewBox="0 0 1125 375" id="livingit" xmlns="http://www.w3.org/2000/svg"><defs><clipPath id="ia" clipPathUnits="userSpaceOnUse"><path d="M0 300h900V0H0v300z"/></clipPath></defs><g clip-path="url(#ia)" transform="matrix(1.25 0 0 -1.25 0 375)"><path d="M888 300H12c-6.627 0-12-5.373-12-12V12C0 5.373 5.373 0 12 0h876c6.627 0 12 5.373 12 12v276c0 6.627-5.373 12-12 12" fill="#fff" fill-rule="evenodd"/><path d="M720.615 251.48c-56.724 0-102.708-45.936-102.708-102.601 0-56.664 45.984-102.6 102.708-102.6s102.708 45.936 102.708 102.6c0 56.665-45.984 102.6-102.708 102.6" fill="#f29400" fill-rule="evenodd"/><path d="M666.358 89.031h28.565v119.345h-28.565V89.031zm43.119 119.345v-25.549h36.374V89.031h28.564v93.796h58.941v25.549H709.477z" fill="#fff"/><path d="M86.635 84.662h36.451v130.42H86.635V84.662zm61.02 0h36.362v94.479h-36.362V84.662zm0 105.777h36.362v24.643h-36.362v-24.643zm105.11-71.17-18.407 59.872h-37.834l39.459-94.479h32.251l40.325 94.479h-36.694l-19.1-59.872zm67.587 71.17h36.362v24.643h-36.362v-24.643zm0-105.777h36.362v94.479h-36.362V84.662zm127.758 96.614c-7.446 0-13.758-1.35-18.94-4.047-5.182-2.701-10.305-7.193-15.367-13.479v15.391h-33.86V84.662h36.362v45.371c0 8.599 1.369 14.56 4.11 17.882 2.738 3.32 6.312 4.981 10.721 4.981 3.989 0 7.087-1.231 9.291-3.691 2.203-2.462 3.305-6.658 3.305-12.589V84.662h36.541v60.05c0 12.455-2.844 21.663-8.532 27.623-5.688 5.961-13.566 8.941-23.631 8.941m112.973-62.941c-3.068-3.411-6.866-5.115-11.392-5.115-4.765 0-8.607 1.645-11.525 4.937-2.918 3.291-4.377 8.347-4.377 15.168 0 7.769 1.385 13.329 4.154 16.681 2.77 3.349 6.478 5.026 11.123 5.026 4.646 0 8.577-1.824 11.793-5.471 3.216-3.648 4.825-8.912 4.825-15.791 0-6.881-1.535-12.026-4.601-15.435m40.963-28.424v89.23h-34.039v-13.967c-4.17 5.752-8.653 9.875-13.446 12.365-4.795 2.491-10.886 3.737-18.271 3.737-11.556 0-20.905-3.856-28.053-11.565-7.147-7.711-10.72-18.92-10.72-33.628 0-12.87 2.769-23.22 8.308-31.048 7.802-11.031 18.047-16.547 30.734-16.547 6.491 0 12.537 1.482 18.135 4.448 3.575 1.897 7.148 4.952 10.722 9.164V87.776c0-6.939-1.296-11.801-3.887-14.589-2.591-2.788-6.508-4.182-11.748-4.182-4.052 0-7.416.92-10.095 2.758-1.847 1.246-3.217 3.5-4.111 6.761l-35.289 4.003c-.12-2.015-.179-3.617-.179-4.803 0-9.549 3.558-17.17 10.676-22.864 7.117-5.694 20.205-8.541 39.266-8.541 8.338 0 15.738.743 22.201 2.225 6.462 1.482 11.793 3.885 15.992 7.206 4.199 3.321 7.564 7.666 10.096 13.032a39.272 39.272 0 0 1 3.797 16.948l-.089 4.181z" fill="#231f20" fill-rule="evenodd"/></g></symbol><symbol viewBox="0 0 2999.62 1699.79" style="enable-background:new 0 0 2999.62 1699.79" xml:space="preserve" id="logo" xmlns="http://www.w3.org/2000/svg"><path d="M2855.43 0H144.19C64.56 0 0 64.55 0 144.18V1555.6c0 79.63 64.56 144.18 144.19 144.18h2711.24c79.64 0 144.19-64.55 144.19-144.18V144.18C2999.62 64.55 2935.07 0 2855.43 0z" style="fill:#fff"/><path d="M514.9 804.42c-196.44 0-355.68 159.23-355.68 355.66s159.24 355.66 355.68 355.66 355.68-159.23 355.68-355.66S711.33 804.42 514.9 804.42zm-148.96 563.52h-99.32V953.5h99.32v414.44zm398.21.48h-99.12L515.7 1136.98v230.95h-99.32V953.5h99.32l149.15 231.39V953.35h99.3v415.07z" style="fill:#ff8705"/><path d="M603.85 446.03c22.28-7.71 39.21-18.21 50.78-31.49 17.35-19.93 26.03-43.81 26.03-71.67 0-33.21-12.16-61.06-36.48-83.56-24.32-22.5-59.19-33.74-104.61-33.74H267.05V696.7h251.31c10.71 0 32.46-2.14 65.24-6.43 24.64-3.21 43.06-8.36 55.28-15.43 19.71-11.35 35.24-26.78 46.6-46.28 11.35-19.49 17.03-41.46 17.03-65.88 0-29.99-7.98-54.9-23.94-74.72-15.96-19.81-40.87-33.79-74.72-41.93zM413.92 321.01h64.27c22.06 0 37.55 3.86 46.44 11.57 8.89 7.71 13.34 18.43 13.34 32.14 0 14.78-4.45 26.09-13.34 33.9-8.89 7.82-24.7 11.73-47.4 11.73h-63.31v-89.34zm127.26 261.12c-10.28 8.89-27.96 13.34-53.03 13.34h-74.24v-95.45h73.92c25.49 0 43.33 4.23 53.51 12.69 10.17 8.47 15.27 19.66 15.27 33.58 0 15.01-5.14 26.95-15.43 35.84zm600.33 26.19-128.87-11.89c-8.14 10.28-15.75 17.46-22.82 21.53-11.57 6.43-23.78 9.64-36.64 9.64-20.36 0-36.85-7.39-49.49-22.17-9-10.28-14.68-25.92-17.03-46.92h262.24v-14.78c0-44.99-7.39-81.52-22.17-109.59-14.78-28.06-36.32-49.49-64.6-64.27-28.28-14.78-66.85-22.17-115.69-22.17-60.21 0-107.39 16.5-141.56 49.49-34.18 33-51.26 76.17-51.26 129.51 0 37.5 8.52 70.11 25.55 97.86s38.51 48 64.44 60.74c25.92 12.74 61.49 19.12 106.7 19.12 52.06 0 92.02-7.45 119.87-22.34 27.83-14.89 51.61-39.48 71.33-73.76zM902.09 449.88c12.42-16.5 29.03-24.75 49.81-24.75 18 0 32.51 5.46 43.55 16.39 11.03 10.93 17.84 29.03 20.41 54.31H886.98c2.14-20.34 7.18-35.66 15.11-45.95zm670.54 211.95c-2.04-9.1-3.05-21.69-3.05-37.76V473.34c0-16.07-3.21-32.94-9.64-50.62s-15.21-31.33-26.35-40.98c-15.86-13.92-35.67-23.08-59.45-27.48-23.78-4.39-55.28-6.59-94.48-6.59-24.42 0-47.14 1.82-68.13 5.46-21 3.65-37.5 8.79-49.49 15.43-16.71 9.21-29.52 20.09-38.4 32.62-8.89 12.53-15.7 29.73-20.41 51.58l125.01 13.18c5.14-14.78 11.89-24.85 20.25-30.21 10.71-6.85 26.78-10.28 48.21-10.28 16.71 0 28.39 3.21 35.03 9.64 6.64 6.43 9.96 17.68 9.96 33.74-16.28 6.43-31.71 11.62-46.28 15.59-14.57 3.97-46.39 10.88-95.45 20.73-40.92 8.14-68.99 20.57-84.2 37.28-15.22 16.71-22.82 38.03-22.82 63.95 0 27.64 10.55 50.89 31.66 69.74 21.1 18.86 52.01 28.28 92.72 28.28 30.64 0 57.53-4.72 80.66-14.14 16.92-7.07 33.95-18.85 51.1-35.35 1.5 9.86 3 17.09 4.5 21.69 1.5 4.61 4.71 11.3 9.64 20.09h122.76c-6.87-14.13-11.32-25.75-13.35-34.86zm-130.96-106.21c0 16.28-2.63 29.52-7.87 39.69-5.25 10.18-14.14 18.8-26.67 25.87-12.53 7.07-26.09 10.61-40.65 10.61-13.93 0-24.48-3.26-31.66-9.8-7.18-6.53-10.77-14.94-10.77-25.23 0-9 3.64-17.03 10.93-24.1 7.07-6.85 23.89-13.82 50.46-20.89 19.49-4.93 38.24-10.61 56.24-17.03v20.88zm565.94 141.08V355.4h-130.8v164.22c0 31.07-4.98 52.6-14.94 64.6-9.96 12-22.77 18-38.4 18-14.36 0-25.5-4.5-33.42-13.5-7.93-9-11.89-24.21-11.89-45.64V355.4h-131.44v217.25c0 44.78 10.23 77.93 30.69 99.47 20.46 21.53 48.69 32.3 84.68 32.3 27 0 49.76-4.82 68.29-14.46 18.53-9.64 36.9-25.82 55.12-48.53v55.28h122.11zm263.85-84.84c-10.72 0-18.21-3.64-22.5-10.91-2.79-4.7-4.18-14.32-4.18-28.86V451.17h71.99V355.4h-71.99V225.57l-131.12 67.17v62.67h-48.21v95.77h48.21v120.04c0 38.09 3.7 65.64 11.09 82.65 7.39 17.01 18.8 29.69 34.23 38.03 15.43 8.35 39.42 12.52 71.99 12.52 28.06 0 58.27-3.54 90.63-10.61l-9.64-90.29c-17.37 5.56-30.86 8.34-40.5 8.34zm189.03 122.75c-9.53 7.08-21.99 10.62-37.4 10.62-23.12 0-44.1-3-62.93-9l10.27 91.27c39.4 5.14 68.53 7.71 87.38 7.71 46.47 0 81.06-10.29 103.76-30.88 16.06-14.58 31.8-42.67 47.22-84.26L2744.2 355.4h-128.89l-65.38 227.21-70.4-227.21h-138.01l143.22 341.24c-6.64 18.23-14.72 30.89-24.25 37.97zm-1182.62 537.97c-14.25 15.64-35.3 23.46-63.15 23.46-28.71 0-50.99-9.68-66.85-29.05-15.86-19.36-23.78-55.16-23.78-107.37 0-42.15 6.64-73.07 19.93-92.76 17.57-26.53 42.85-39.81 75.84-39.81 14.57 0 27.74 3 39.53 9 11.78 6 21.74 14.57 29.89 25.71 4.93 6.64 9.64 17.14 14.14 31.49l128.55-28.6c-16.5-49.7-41.73-86.55-75.68-110.55-33.96-23.99-80.61-35.99-139.96-35.99-75.84 0-134.49 20.93-175.95 62.79-41.46 41.86-62.19 101.75-62.19 179.69 0 58.45 11.78 106.41 35.35 143.88s51.58 63.64 84.04 78.52c32.46 14.88 74.29 22.32 125.5 22.32 42.21 0 76.97-6.11 104.29-18.32s50.18-30.31 68.61-54.31c18.42-23.99 31.92-53.88 40.49-89.66l-127.59-38.56c-6.42 29.77-16.76 52.48-31.01 68.12zm399.63-224.32c-59.78 0-107.23 16.87-142.37 50.62-35.14 33.74-52.71 76.65-52.71 128.71 0 55.92 20.78 101.13 62.35 135.62 33.85 27.85 78.2 41.78 133.05 41.78 61.49 0 109.64-16.76 144.46-50.29 34.81-33.53 52.22-76.54 52.22-129.03 0-46.7-14.03-86.02-42.1-117.94-34.92-39.65-86.56-59.47-154.9-59.47zm47.4 246.82c-12.11 14.36-27.59 21.53-46.44 21.53-18.64 0-34.12-7.28-46.44-21.85s-18.48-37.06-18.48-67.49c0-29.99 6.21-52.33 18.64-67.01 12.42-14.67 28.17-22.01 47.24-22.01 18 0 33.1 7.23 45.31 21.69s18.32 36.48 18.32 66.04c.01 31.71-6.05 54.75-18.15 69.1zm439.8-205.68c-12.85-13.71-27.59-23.99-44.19-30.85-16.61-6.85-35.09-10.28-55.44-10.28-41.78 0-76.22 15-103.32 44.99-27.11 30-40.65 73.27-40.65 129.83 0 50.57 12.26 93.52 36.8 128.87 24.53 35.35 60.04 53.03 106.54 53.03 23.14 0 44.13-4.93 62.99-14.78 14.14-7.5 29.78-21.96 46.92-43.39v50.46h122.44V926.14H2164.7v163.26zm-15.75 200.21c-11.14 13.07-25.07 19.6-41.78 19.6-15.64 0-28.76-6.48-39.37-19.44-10.61-12.96-15.91-33.37-15.91-61.22 0-29.78 5.14-50.99 15.43-63.63 10.28-12.64 23.03-18.96 38.24-18.96 17.35 0 31.71 6.59 43.06 19.76 11.35 13.18 17.03 33.16 17.03 59.94.02 29.57-5.56 50.89-16.7 63.95zm606.44-45.31c0-44.99-7.39-81.52-22.17-109.59-14.78-28.06-36.32-49.49-64.6-64.27-28.28-14.78-66.85-22.17-115.69-22.17-60.21 0-107.39 16.5-141.56 49.49-34.18 33-51.26 76.17-51.26 129.51 0 37.5 8.52 70.11 25.55 97.86s38.51 48 64.44 60.74c25.92 12.74 61.49 19.12 106.7 19.12 52.06 0 92.02-7.45 119.87-22.34 27.85-14.89 51.63-39.47 71.34-73.76L2619.12 1297c-8.14 10.28-15.75 17.46-22.82 21.53-11.57 6.43-23.78 9.64-36.64 9.64-20.36 0-36.85-7.39-49.49-22.17-9-10.28-14.68-25.92-17.03-46.92h262.24v-14.78zm-261.92-47.88c2.14-20.35 7.18-35.67 15.1-45.96 12.42-16.5 29.03-24.75 49.81-24.75 18 0 32.51 5.46 43.55 16.39 11.03 10.93 17.84 29.03 20.41 54.31h-128.87z" style="fill:#231f20"/></symbol><symbol id="logo_new" viewBox="0 0 2596.17 1290.17" xmlns="http://www.w3.org/2000/svg"><defs><style>.kcls-1{fill:#fff}</style></defs><ellipse class="kcls-1" cx="355.68" cy="934.51" rx="340.69" ry="340.67" id="kIN"/><path d="M355.68 578.86C159.24 578.86 0 738.09 0 934.51s159.24 355.66 355.68 355.66 355.68-159.23 355.68-355.66-159.24-355.66-355.68-355.66Zm-148.95 563.51h-99.32V727.93h99.32v414.44Zm398.21.48h-99.12L356.49 911.41v230.95h-99.32V727.92h99.32l149.15 231.39V727.77h99.3v415.07Z" style="fill:#ff8705" id="kIN-2"/><path class="kcls-1" d="M444.64 220.46c22.28-7.71 39.21-18.21 50.78-31.49 17.35-19.93 26.03-43.81 26.03-71.67 0-33.21-12.16-61.06-36.48-83.56C460.65 11.25 425.78 0 380.36 0H107.84v471.13h251.31c10.71 0 32.46-2.14 65.24-6.43 24.64-3.21 43.06-8.36 55.28-15.43 19.71-11.35 35.24-26.78 46.6-46.28 11.35-19.49 17.03-41.46 17.03-65.88 0-29.99-7.98-54.9-23.94-74.72-15.96-19.81-40.87-33.79-74.72-41.94ZM254.71 95.45h64.27c22.06 0 37.55 3.86 46.44 11.57 8.89 7.71 13.34 18.43 13.34 32.14 0 14.78-4.45 26.09-13.34 33.9-8.89 7.82-24.7 11.73-47.4 11.73h-63.31V95.45Zm127.26 261.12c-10.28 8.89-27.96 13.34-53.03 13.34H254.7v-95.45h73.92c25.49 0 43.33 4.23 53.51 12.69 10.17 8.47 15.27 19.66 15.27 33.58 0 15-5.14 26.95-15.43 35.83Zm600.33 26.19-128.87-11.89c-8.14 10.28-15.75 17.46-22.82 21.53-11.57 6.43-23.78 9.64-36.64 9.64-20.36 0-36.85-7.39-49.49-22.17-9-10.28-14.68-25.92-17.03-46.92h262.24v-14.78c0-44.99-7.39-81.52-22.17-109.59-14.78-28.06-36.32-49.49-64.6-64.27-28.28-14.78-66.85-22.17-115.69-22.17-60.21 0-107.39 16.5-141.56 49.49-34.18 33-51.26 76.17-51.26 129.51 0 37.5 8.52 70.11 25.55 97.86s38.51 48 64.44 60.74c25.92 12.74 61.49 19.12 106.7 19.12 52.06 0 92.02-7.45 119.87-22.34 27.85-14.89 51.63-39.47 71.34-73.76ZM742.88 224.32c12.42-16.5 29.03-24.75 49.81-24.75 18 0 32.51 5.46 43.55 16.39 11.03 10.93 17.84 29.03 20.41 54.31H727.78c2.14-20.35 7.18-35.67 15.1-45.96Zm670.55 211.95c-2.04-9.1-3.05-21.69-3.05-37.76V247.78c0-16.07-3.21-32.94-9.64-50.62-6.43-17.68-15.21-31.33-26.35-40.98-15.86-13.92-35.67-23.08-59.45-27.48-23.78-4.39-55.28-6.59-94.48-6.59-24.42 0-47.14 1.82-68.13 5.46-21 3.65-37.5 8.79-49.49 15.43-16.71 9.21-29.52 20.09-38.4 32.62-8.89 12.53-15.7 29.73-20.41 51.58l125.01 13.18c5.14-14.78 11.89-24.85 20.25-30.21 10.71-6.85 26.78-10.28 48.21-10.28 16.71 0 28.39 3.21 35.03 9.64 6.64 6.43 9.96 17.68 9.96 33.74-16.28 6.43-31.71 11.62-46.28 15.59-14.57 3.97-46.39 10.88-95.45 20.73-40.92 8.14-68.99 20.57-84.2 37.28-15.22 16.71-22.82 38.03-22.82 63.95 0 27.64 10.55 50.89 31.66 69.74 21.1 18.86 52.01 28.28 92.72 28.28 30.64 0 57.53-4.72 80.66-14.14 16.92-7.07 33.96-18.85 51.1-35.35 1.5 9.86 3 17.09 4.5 21.69 1.5 4.61 4.71 11.3 9.64 20.09h122.76c-6.86-14.14-11.3-25.76-13.34-34.87Zm-130.96-106.21c0 16.28-2.63 29.52-7.87 39.69-5.25 10.18-14.14 18.8-26.67 25.87-12.53 7.07-26.09 10.61-40.65 10.61s-24.48-3.26-31.66-9.8c-7.18-6.53-10.77-14.94-10.77-25.23 0-9 3.64-17.03 10.93-24.1 7.07-6.85 23.89-13.82 50.46-20.89 19.49-4.93 38.24-10.61 56.24-17.03v20.89Zm565.94 141.08V129.83h-130.8v164.22c0 31.07-4.98 52.6-14.94 64.6-9.96 12-22.77 18-38.4 18-14.36 0-25.5-4.5-33.42-13.5-7.93-9-11.89-24.21-11.89-45.64V129.83h-131.44v217.25c0 44.78 10.23 77.93 30.69 99.47 20.46 21.53 48.69 32.3 84.68 32.3 27 0 49.76-4.82 68.29-14.46 18.53-9.64 36.9-25.82 55.12-48.53v55.28h122.12Zm263.85-84.84c-10.72 0-18.21-3.64-22.5-10.91-2.79-4.7-4.18-14.32-4.18-28.86V225.61h71.99v-95.77h-71.99V0l-131.12 67.17v62.67h-48.21v95.77h48.21v120.04c0 38.09 3.7 65.64 11.09 82.65 7.39 17.01 18.8 29.69 34.23 38.03 15.43 8.35 39.42 12.52 71.99 12.52 28.06 0 58.27-3.54 90.63-10.61l-9.64-90.29c-17.35 5.56-30.85 8.34-40.49 8.34Zm189.04 122.75c-9.53 7.08-21.99 10.62-37.4 10.62-23.12 0-44.1-3-62.93-9l10.27 91.27c39.4 5.14 68.53 7.71 87.38 7.71 46.47 0 81.06-10.29 103.76-30.88 16.06-14.58 31.8-42.67 47.22-84.26l135.41-364.67h-128.89l-65.38 227.21-70.4-227.21h-138.01l143.22 341.24c-6.64 18.23-14.72 30.89-24.24 37.97Zm-1182.62 537.97c-14.25 15.64-35.3 23.46-63.15 23.46s-50.99-9.68-66.85-29.05c-15.86-19.36-23.78-55.16-23.78-107.37 0-42.15 6.64-73.07 19.93-92.76 17.57-26.53 42.85-39.81 75.84-39.81 14.57 0 27.74 3 39.53 9 11.78 6 21.74 14.57 29.89 25.71 4.93 6.64 9.64 17.14 14.14 31.49l128.55-28.6c-16.5-49.7-41.73-86.55-75.68-110.55-33.96-23.99-80.61-35.99-139.96-35.99-75.84 0-134.49 20.93-175.95 62.79C839.73 797.2 819 857.09 819 935.03c0 58.45 11.78 106.41 35.35 143.88s51.58 63.64 84.04 78.52c32.46 14.88 74.29 22.32 125.5 22.32 42.21 0 76.97-6.11 104.29-18.32 27.32-12.21 50.18-30.31 68.61-54.31 18.42-23.99 31.92-53.88 40.49-89.66l-127.59-38.56c-6.43 29.78-16.77 52.49-31.01 68.13Zm399.63-224.32c-59.78 0-107.23 16.87-142.37 50.62-35.14 33.74-52.71 76.65-52.71 128.71 0 55.92 20.78 101.13 62.35 135.62 33.85 27.85 78.2 41.78 133.05 41.78 61.49 0 109.64-16.76 144.46-50.29 34.81-33.53 52.22-76.54 52.22-129.03 0-46.7-14.03-86.02-42.1-117.94-34.92-39.63-86.56-59.45-154.9-59.45Zm47.4 246.81c-12.11 14.36-27.59 21.53-46.44 21.53s-34.12-7.28-46.44-21.85-18.48-37.06-18.48-67.49 6.21-52.33 18.64-67.01c12.42-14.67 28.17-22.01 47.24-22.01 18 0 33.1 7.23 45.31 21.69s18.32 36.48 18.32 66.04c0 31.71-6.06 54.74-18.16 69.1Zm439.8-205.68c-12.85-13.71-27.59-23.99-44.19-30.85-16.61-6.85-35.09-10.28-55.44-10.28-41.78 0-76.22 15-103.32 44.99-27.11 30-40.65 73.27-40.65 129.83 0 50.57 12.26 93.52 36.8 128.87 24.53 35.35 60.04 53.03 106.54 53.03 23.14 0 44.13-4.93 62.99-14.78 14.14-7.5 29.78-21.96 46.92-43.39v50.46h122.44V700.58h-132.08v163.26Zm-15.75 200.22c-11.14 13.07-25.07 19.6-41.78 19.6-15.64 0-28.76-6.48-39.37-19.44-10.61-12.96-15.91-33.37-15.91-61.22 0-29.78 5.14-50.99 15.43-63.63 10.28-12.64 23.03-18.96 38.24-18.96 17.35 0 31.71 6.59 43.06 19.76 11.35 13.18 17.03 33.16 17.03 59.94 0 29.57-5.57 50.89-16.71 63.95Zm606.43-45.31c0-44.99-7.39-81.52-22.17-109.59-14.78-28.06-36.32-49.49-64.6-64.27-28.28-14.78-66.85-22.17-115.69-22.17-60.21 0-107.39 16.5-141.56 49.49-34.18 33-51.26 76.17-51.26 129.51 0 37.5 8.52 70.11 25.55 97.86s38.51 48 64.44 60.74c25.92 12.74 61.49 19.12 106.7 19.12 52.06 0 92.02-7.45 119.87-22.34 27.85-14.89 51.63-39.47 71.34-73.76l-128.87-11.89c-8.14 10.28-15.75 17.46-22.82 21.53-11.57 6.43-23.78 9.64-36.64 9.64-20.36 0-36.85-7.39-49.49-22.17-9-10.28-14.68-25.92-17.03-46.92h262.24v-14.78Zm-261.92-47.88c2.14-20.35 7.18-35.67 15.1-45.96 12.42-16.5 29.03-24.75 49.81-24.75 18 0 32.51 5.46 43.55 16.39 11.03 10.93 17.84 29.03 20.41 54.31h-128.87Z" id="kBeauty_Code"/></symbol><symbol viewBox="0 0 24 24" id="twitter" xmlns="http://www.w3.org/2000/svg"><path d="M5 3h14a2 2 0 0 1 2 2v14a2 2 0 0 1-2 2H5a2 2 0 0 1-2-2V5a2 2 0 0 1 2-2m12.71 6.33c.48-.4 1.04-.88 1.29-1.41-.41.21-.9.34-1.44.41.5-.36.91-.83 1.12-1.47-.52.28-1.05.52-1.71.64-1.55-1.87-5.26-.35-4.6 2.45-2.61-.16-4.2-1.34-5.52-2.79-.75 1.22-.1 3.07.79 3.58-.46-.03-.81-.17-1.14-.33.04 1.54.89 2.28 2.08 2.68-.36.07-.76.09-1.14.03.37 1.07 1.14 1.74 2.46 1.88-.9.76-2.56 1.29-3.9 1.08 1.15.73 2.46 1.31 4.28 1.23 4.41-.2 7.36-3.36 7.43-7.98z"/></symbol><symbol viewBox="0 0 100 100" style="enable-background:new 0 0 100 100" xml:space="preserve" id="twitter_new" xmlns="http://www.w3.org/2000/svg"><path d="M50 0C22.4 0 0 22.4 0 50s22.4 50 50 50 50-22.4 50-50S77.6 0 50 0zm26.2 39.1v1.6C76.2 57.1 63.7 76 40.9 76c-7 0-13.5-2.1-19-5.6 1 .1 2 .2 3 .2 5.8 0 11.2-2 15.4-5.3-5.4-.1-10-3.7-11.6-8.6.8.1 1.5.2 2.3.2 1.1 0 2.2-.1 3.3-.4-5.7-1.1-10-6.2-10-12.2v-.2c1.7.9 3.6 1.5 5.6 1.6-3.3-2.2-5.5-6-5.5-10.3 0-2.3.6-4.4 1.7-6.2 6.1 7.5 15.3 12.5 25.6 13-.2-.9-.3-1.9-.3-2.8C51.4 32.5 57 27 63.8 27c3.6 0 6.8 1.5 9.1 3.9 2.8-.6 5.5-1.6 7.9-3-.9 2.9-2.9 5.3-5.5 6.9 2.5-.3 4.9-1 7.1-2-1.7 2.3-3.8 4.5-6.2 6.3z" style="fill:#332d2a"/></symbol></svg>