<?xml version="1.0" encoding="UTF-8" standalone="no"?>
<svg
   xmlns:dc="http://purl.org/dc/elements/1.1/"
   xmlns:cc="http://creativecommons.org/ns#"
   xmlns:rdf="http://www.w3.org/1999/02/22-rdf-syntax-ns#"
   xmlns:svg="http://www.w3.org/2000/svg"
   xmlns="http://www.w3.org/2000/svg"
   viewBox="0 0 1125 375"
   height="375"
   width="1125"
   xml:space="preserve"
   version="1.1"
   id="svg2"><metadata
     id="metadata8"><rdf:RDF><cc:Work
         rdf:about=""><dc:format>image/svg+xml</dc:format><dc:type
           rdf:resource="http://purl.org/dc/dcmitype/StillImage" /></cc:Work></rdf:RDF></metadata><defs
     id="defs6"><clipPath
       id="clipPath16"
       clipPathUnits="userSpaceOnUse"><path
         id="path18"
         d="M 0,300 900,300 900,0 0,0 0,300 Z" /></clipPath></defs><g
     transform="matrix(1.25,0,0,-1.25,0,375)"
     id="g10"><g
       id="g12"><g
         clip-path="url(#clipPath16)"
         id="g14"><g
           transform="translate(888,300)"
           id="g20"><path
             id="path22"
             style="fill:#ffffff;fill-opacity:1;fill-rule:evenodd;stroke:none"
             d="m 0,0 -876,0 c -6.627,0 -12,-5.373 -12,-12 l 0,-276 c 0,-6.627 5.373,-12 12,-12 l 876,0 c 6.627,0 12,5.373 12,12 l 0,276 C 12,-5.373 6.627,0 0,0" /></g><g
           transform="translate(720.6152,251.4795)"
           id="g24"><path
             id="path26"
             style="fill:#f29400;fill-opacity:1;fill-rule:evenodd;stroke:none"
             d="m 0,0 c -56.724,0 -102.708,-45.936 -102.708,-102.601 0,-56.664 45.984,-102.6 102.708,-102.6 56.724,0 102.708,45.936 102.708,102.6 C 102.708,-45.936 56.724,0 0,0" /></g><path
           id="path28"
           style="fill:#ffffff;fill-opacity:1;fill-rule:nonzero;stroke:none"
           d="m 666.358,89.031 28.565,0 0,119.345 -28.565,0 0,-119.345 z m 43.119,119.345 0,-25.549 36.374,0 0,-93.796 28.564,0 0,93.796 58.941,0 0,25.549 -123.879,0 z" /><path
           id="path30"
           style="fill:#231f20;fill-opacity:1;fill-rule:evenodd;stroke:none"
           d="m 86.635,84.662 36.451,0 0,130.42 -36.451,0 0,-130.42 z m 61.02,0 36.362,0 0,94.479 -36.362,0 0,-94.479 z m 0,105.777 36.362,0 0,24.643 -36.362,0 0,-24.643 z m 105.11,-71.17 -18.407,59.872 -37.834,0 39.459,-94.479 32.251,0 40.325,94.479 -36.694,0 -19.1,-59.872 z m 67.587,71.17 36.362,0 0,24.643 -36.362,0 0,-24.643 z m 0,-105.777 36.362,0 0,94.479 -36.362,0 0,-94.479 z m 127.758,96.614 c -7.446,0 -13.758,-1.35 -18.94,-4.047 -5.182,-2.701 -10.305,-7.193 -15.367,-13.479 l 0,15.391 -33.86,0 0,-94.479 36.362,0 0,45.371 c 0,8.599 1.369,14.56 4.11,17.882 2.738,3.32 6.312,4.981 10.721,4.981 3.989,0 7.087,-1.231 9.291,-3.691 2.203,-2.462 3.305,-6.658 3.305,-12.589 l 0,-51.954 36.541,0 0,60.05 c 0,12.455 -2.844,21.663 -8.532,27.623 -5.688,5.961 -13.566,8.941 -23.631,8.941 m 112.973,-62.941 c -3.068,-3.411 -6.866,-5.115 -11.392,-5.115 -4.765,0 -8.607,1.645 -11.525,4.937 -2.918,3.291 -4.377,8.347 -4.377,15.168 0,7.769 1.385,13.329 4.154,16.681 2.77,3.349 6.478,5.026 11.123,5.026 4.646,0 8.577,-1.824 11.793,-5.471 3.216,-3.648 4.825,-8.912 4.825,-15.791 0,-6.881 -1.535,-12.026 -4.601,-15.435 m 40.963,-28.424 0,89.23 -34.039,0 0,-13.967 c -4.17,5.752 -8.653,9.875 -13.446,12.365 -4.795,2.491 -10.886,3.737 -18.271,3.737 -11.556,0 -20.905,-3.856 -28.053,-11.565 -7.147,-7.711 -10.72,-18.92 -10.72,-33.628 0,-12.87 2.769,-23.22 8.308,-31.048 7.802,-11.031 18.047,-16.547 30.734,-16.547 6.491,0 12.537,1.482 18.135,4.448 3.575,1.897 7.148,4.952 10.722,9.164 l 0,-14.324 c 0,-6.939 -1.296,-11.801 -3.887,-14.589 -2.591,-2.788 -6.508,-4.182 -11.748,-4.182 -4.052,0 -7.416,0.92 -10.095,2.758 -1.847,1.246 -3.217,3.5 -4.111,6.761 l -35.289,4.003 c -0.12,-2.015 -0.179,-3.617 -0.179,-4.803 0,-9.549 3.558,-17.17 10.676,-22.864 7.117,-5.694 20.205,-8.541 39.266,-8.541 8.338,0 15.738,0.743 22.201,2.225 6.462,1.482 11.793,3.885 15.992,7.206 4.199,3.321 7.564,7.666 10.096,13.032 2.531,5.369 3.797,11.018 3.797,16.948 l -0.089,4.181 z" /></g></g></g></svg>