<?xml version="1.0" encoding="utf-8"?>
<!-- Generator: Adobe Illustrator 25.1.0, SVG Export Plug-In . SVG Version: 6.00 Build 0)  -->
<svg version="1.1" id="Layer_1" xmlns="http://www.w3.org/2000/svg" xmlns:xlink="http://www.w3.org/1999/xlink" x="0px" y="0px"
	 viewBox="0 0 100 100" style="enable-background:new 0 0 100 100;" xml:space="preserve">
<style type="text/css">
	.st0{fill:#332D2A;}
</style>
<g>
	<path class="st0" d="M50,0C22.4,0,0,22.4,0,50s22.4,50,50,50s50-22.4,50-50S77.6,0,50,0z M40.7,72.2h-9.2V42.5h9.2V72.2z
		 M36.1,38.4c-3,0-5.4-2.4-5.4-5.4s2.4-5.4,5.4-5.4s5.4,2.4,5.4,5.4C41.4,36,39,38.4,36.1,38.4z M75.3,72.2L75.3,72.2h-9.2V57.8
		c0-3.5-0.1-7.9-4.8-7.9c-4.8,0-5.5,3.8-5.5,7.6v14.7h-9.2V42.5h8.9v4h0.1c1.2-2.3,4.2-4.8,8.7-4.8c9.3,0,11.1,6.2,11.1,14.2
		C75.3,55.9,75.3,72.2,75.3,72.2z"/>
</g>
</svg>
